# xmcd CD database file generated by Grip 2.96
# 
# Track frame offsets:
#       150
#       16985
#       32565
#       50630
#       71600
#       92667
#       111662
#       135305
#       150740
#       171450
#       188645
#       203850
#       218085
#       238900
# 
# Disc length: 3379 seconds
# 
# Revision: 0
# Processed by: cddbd v1.4PL0 Copyright (c) Steve Scherf et al.
# Submitted via: Grip 2.96
# 
DISCID=c70d310e
DTITLE=Rainer Baumann - The Blues Mood
DYEAR=1900
DGENRE=
TTITLE0=Cheque Book
TTITLE1=Your Way Of Living
TTITLE2=I Like The Things About Me
TTITLE3=Judgement Day
TTITLE4=Me And Crystal Eyes
TTITLE5=Work, Work, Work
TTITLE6=Same Thing
TTITLE7=I Guess You Want Me Now
TTITLE8=Jonah And The Whale
TTITLE9=Fooling Around
TTITLE10=Early In The Morning
TTITLE11=I've Been Livin' With The Blues
TTITLE12=Slowhand
TTITLE13=Hello Good Looking
EXTD=
EXTT0=
EXTT1=
EXTT2=
EXTT3=
EXTT4=
EXTT5=
EXTT6=
EXTT7=
EXTT8=
EXTT9=
EXTT10=
EXTT11=
EXTT12=
EXTT13=
PLAYORDER=
